<?xml version="1.0" encoding="UTF-8" standalone="no"?>
<svg
   xmlns:dc="http://purl.org/dc/elements/1.1/"
   xmlns:cc="http://creativecommons.org/ns#"
   xmlns:rdf="http://www.w3.org/1999/02/22-rdf-syntax-ns#"
   xmlns:svg="http://www.w3.org/2000/svg"
   xmlns="http://www.w3.org/2000/svg"
   xmlns:sodipodi="http://sodipodi.sourceforge.net/DTD/sodipodi-0.dtd"
   xmlns:inkscape="http://www.inkscape.org/namespaces/inkscape"
   id="trace"
   width="2671"
   height="815"
   viewBox="0 0 2671 815"
   version="1.1"
   sodipodi:docname="empeiria-logo.svg"
   inkscape:version="1.0.2-2 (e86c870879, 2021-01-15)">
  <metadata
     id="metadata16">
    <rdf:RDF>
      <cc:Work
         rdf:about="">
        <dc:format>image/svg+xml</dc:format>
        <dc:type
           rdf:resource="http://purl.org/dc/dcmitype/StillImage" />
        <dc:title />
      </cc:Work>
    </rdf:RDF>
  </metadata>
  <sodipodi:namedview
     pagecolor="#ffffff"
     bordercolor="#666666"
     borderopacity="1"
     objecttolerance="10"
     gridtolerance="10"
     guidetolerance="10"
     inkscape:pageopacity="0"
     inkscape:pageshadow="2"
     inkscape:window-width="1920"
     inkscape:window-height="1017"
     id="namedview14"
     showgrid="false"
     fit-margin-top="0"
     fit-margin-left="0"
     fit-margin-right="0"
     fit-margin-bottom="0"
     inkscape:zoom="0.33897863"
     inkscape:cx="1465.3555"
     inkscape:cy="29.495388"
     inkscape:window-x="-8"
     inkscape:window-y="-8"
     inkscape:window-maximized="1"
     inkscape:current-layer="trace"
     inkscape:document-rotation="0" />
  <defs
     id="defs4">
    <style
       id="style2">
      .cls-1 {
        fill: #161416;
        fill-rule: evenodd;
      }
    </style>
  </defs>
  <g
     id="g853"
     style="fill:#ffffff;fill-opacity:1">
    <path
       id="Я"
       class="cls-1"
       d="m 2400,425 -80,-1 c 0,0 -104.13,-23.017 -116,-153 C 2193.19,152.621 2328,84 2328,84 L 2470,73 V 18 l 12,-12 78,-6 v 69 l 110,-9 1,10 -34,68 -76,-5 -1,242 h 42 v 80 l -11,7 -33,-12 1,231 69,16 35,26 -6,17 h -265 l -5,-8 -2,-23 6,-11 80,-22 2,-226 c 0,0 -70.99,25.211 -107,87 -44.63,76.6 -57.79,118.39 -74,137 -24.3,27.89 -45.15,42.83 -106,61 -66.75,19.93 -138,-1 -138,-1 0,0 91.39,-38.17 133,-98 44.1,-63.42 60,-112 60,-112 0,0 35.98,-37.941 73,-60 41.6,-24.786 86,-39 86,-39 z m 72,-295 v 248 c 0,0 -56.98,9.419 -97,-7 -46.22,-18.964 -73,-98 -73,-98 0,0 12.54,-84.751 48,-114 50.8,-41.9 122,-29 122,-29 z"
       style="fill:#ffffff;fill-opacity:1" />
    <path
       id="и_2"
       data-name="и 2"
       class="cls-1"
       d="m 1981,226 v 370 l 9,3 h 65 l 3,-4 V 460 l 10,10 68,-67 1,197 h 60 l 6,-6 -3,-367 -13,-8 -52,1 v 138 l -15,-14 -66,60 -2,-168 v -4 l -7,-9 z"
       style="fill:#ffffff;fill-opacity:1" />
    <path
       id="р"
       class="cls-1"
       d="m 1658,303 v -65 l 39,3 -1,-58 76,6 4,11 -1,51 a 1135.43,1135.43 0 0 1 128,31 c 54.59,16.74 71.85,91.878 76,132 0.75,7.2 -5.52,63.657 -27,90 -32.68,40.07 -45.94,45.91 -44,44 0,0 -41,11.63 -79,17 -13.08,1.85 -52.24,8.51 -53,9 v 181 l 54,12 -2,48 h -217 l 4,-32 79,-34 V 579 a 26.8,26.8 0 0 0 -14,1 c -9.93,3.31 -13,4 -13,4 l -8,-3 v -68 l 8,-10 h 27 V 303 Z m 114,2 c 0,0 70.86,4.357 106,39 31.02,30.579 14,107 14,107 0,0 -17.57,30.872 -43,45 -24.03,13.35 -76,16 -76,16 z m -28,-119 c 0,0 -24.49,-12.837 -34,-30 -8.43,-15.219 -2,-35 -2,-35 0,0 1.01,-11.391 21,-26 13.44,-9.823 2,-40 2,-40 0,0 24.5,9.441 37,28 a 51.605,51.605 0 0 1 8,23 c 0,0 -2.56,15.708 -16,25 -18.37,12.7 -20,22 -20,22 0,0 -2.95,8.178 -2,16 1.05,8.637 6,17 6,17 z"
       style="fill:#ffffff;fill-opacity:1" />
    <path
       id="и_1"
       data-name="и 1"
       class="cls-1"
       d="m 1446,225 v 370 l 5,5 67,-1 5,-4 V 460 l 10,10 43,-58 -1,187 74,1 3,-7 -3,-367 -2,-7 h -76 v 140 l -7,-4 -37,44 -2,-168 3,-3 -3,-8 z"
       style="fill:#ffffff;fill-opacity:1" />
    <path
       id="п"
       class="cls-1"
       d="m 1091,220 15,55 51,3 12,338 71,-14 2,-322 h 84 l 9,331 69,-9 1,-326 34,-13 v -38 z"
       style="fill:#ffffff;fill-opacity:1" />
    <path
       id="м"
       class="cls-1"
       d="m 688,226 2,113 -22,21 25,24 v 220 h 70 V 443 l 81,82 h -1 l 13,192 53,7 5,-200 93,-87 v 167 h 70 l 6,-10 V 390 l 28,-27 -26,-32 2,-111 h -83 v 130 l -90,92 7,-163 48,-9 14,-49 -196,5 3,41 39,9 13,162 -78,-66 4,-146 z"
       style="fill:#ffffff;fill-opacity:1" />
    <path
       id="Э"
       class="cls-1"
       d="M 14,285 V 66 h 29 c 0,0 6.436,28.476 26,40 16.709,9.843 47,4 47,4 0,0 93.965,-50.841 199,-48 128.4,3.473 235,76 235,76 0,0 85.74,79.725 115,167 29.74,88.713 3,185 3,185 0,0 -15.5,57.51 -49,109 -26.06,40.06 -72,77 -72,77 0,0 -73.96,38.97 -158,58 -103.949,23.53 -224,-8 -224,-8 0,0 -81.135,-35.76 -110,-69 C 6.627,601.3 0,536 0,536 l 26,-15 27,10 c 0,0 -27.731,87.05 113,142 74.63,29.14 199,-3 199,-3 0,0 53.7,-5.32 124,-107 40.07,-57.96 42,-134 42,-134 0,0 -34.4,25.4 -71,39 -37.387,13.894 -80,16 -80,16 A 839.968,839.968 0 0 1 270,433 c -55.168,-30.933 -135,-4 -135,-4 l -5,-8 c 0,0 55.56,-43.965 115,-60 46.44,-12.528 100,2 100,2 0,0 57.465,33.022 109,45 39.28,9.13 76,-2 76,-2 0,0 7.32,-51.525 -4,-100 -11.68,-50 -42,-97 -42,-97 0,0 -36.28,-76.2 -156,-91 -134.019,-16.572 -200,38 -200,38 0,0 -25.349,23.4 -43,52 -21.473,34.791 -35,77 -35,77 z"
       style="fill:#ffffff;fill-opacity:1" />
  </g>
</svg>
